<?xml version="1.0" encoding="UTF-8" standalone="no"?>
<!-- Created with Inkscape (http://www.inkscape.org/) -->

<svg
   width="33.234135mm"
   height="33.24543mm"
   viewBox="0 0 33.234135 33.24543"
   version="1.1"
   id="svg3808"
   inkscape:version="1.2.2 (732a01da63, 2022-12-09)"
   sodipodi:docname="favicon.svg"
   inkscape:export-filename="C:\Users\onomo_000\Downloads\Canvas.png"
   inkscape:export-xdpi="56.330002"
   inkscape:export-ydpi="56.330002"
   xmlns:inkscape="http://www.inkscape.org/namespaces/inkscape"
   xmlns:sodipodi="http://sodipodi.sourceforge.net/DTD/sodipodi-0.dtd"
   xmlns="http://www.w3.org/2000/svg"
   xmlns:svg="http://www.w3.org/2000/svg"
   xmlns:rdf="http://www.w3.org/1999/02/22-rdf-syntax-ns#"
   xmlns:cc="http://creativecommons.org/ns#"
   xmlns:dc="http://purl.org/dc/elements/1.1/">
  <defs
     id="defs3802" />
  <sodipodi:namedview
     id="base"
     pagecolor="#ffffff"
     bordercolor="#666666"
     borderopacity="1.0"
     inkscape:pageopacity="0.0"
     inkscape:pageshadow="2"
     inkscape:zoom="3.5191406"
     inkscape:cx="46.460207"
     inkscape:cy="65.356866"
     inkscape:document-units="mm"
     inkscape:current-layer="layer1"
     showgrid="false"
     fit-margin-top="0"
     fit-margin-left="0"
     fit-margin-right="0"
     fit-margin-bottom="0"
     inkscape:window-width="1536"
     inkscape:window-height="897"
     inkscape:window-x="-8"
     inkscape:window-y="-8"
     inkscape:window-maximized="1"
     inkscape:showpageshadow="2"
     inkscape:pagecheckerboard="0"
     inkscape:deskcolor="#d1d1d1" />
  <metadata
     id="metadata3805">
    <rdf:RDF>
      <cc:Work
         rdf:about="">
        <dc:format>image/svg+xml</dc:format>
        <dc:type
           rdf:resource="http://purl.org/dc/dcmitype/StillImage" />
      </cc:Work>
    </rdf:RDF>
  </metadata>
  <g
     inkscape:label="Layer 1"
     inkscape:groupmode="layer"
     id="layer1"
     transform="translate(-19.430652,-104.74729)">
    <g
       id="g1679"
       transform="matrix(0.83339981,0,0,0.83339981,6.0055566,20.220264)"
       style="stroke-width:1.1999">
      <g
         transform="matrix(-0.26816846,0,0,0.26816846,23.416045,121.34251)"
         id="g1153"
         style="stroke-width:1.57847">
        <path
           inkscape:connector-curvature="0"
           id="path1155"
           style="fill:#e12426;fill-opacity:1;fill-rule:nonzero;stroke:none;stroke-width:1.57847"
           d="M 0,0 C 0,6.957 -5.221,12.682 -11.951,13.508 -13.069,9.193 -13.664,4.666 -13.664,0 c 0,-4.663 0.595,-9.194 1.713,-13.509 C -5.217,-12.683 0,-6.954 0,0" />
      </g>
      <g
         transform="matrix(-0.26816846,0,0,0.26816846,48.679392,121.34251)"
         id="g1161"
         style="stroke-width:1.57847">
        <path
           inkscape:connector-curvature="0"
           id="path1163"
           style="fill:#e12426;fill-opacity:1;fill-rule:nonzero;stroke:none;stroke-width:1.57847"
           d="m 0,0 c 0,-6.954 5.218,-12.683 11.952,-13.509 1.116,4.315 1.713,8.846 1.713,13.509 0,4.666 -0.597,9.193 -1.713,13.508 C 5.218,12.682 0,6.957 0,0" />
      </g>
      <g
         transform="matrix(-0.26816846,0,0,0.26816846,36.024789,134.00596)"
         id="g1169"
         style="stroke-width:1.57847">
        <path
           inkscape:connector-curvature="0"
           id="path1171"
           style="fill:#e12426;fill-opacity:1;fill-rule:nonzero;stroke:none;stroke-width:1.57847"
           d="m 0,0 c -6.953,0 -12.68,-5.222 -13.508,-11.953 4.32,-1.116 8.844,-1.711 13.512,-1.711 4.666,0 9.189,0.595 13.508,1.711 C 12.685,-5.222 6.959,0 0,0" />
      </g>
      <g
         transform="matrix(-0.26816846,0,0,0.26816846,36.023718,108.73403)"
         id="g1177"
         style="stroke-width:1.57847">
        <path
           inkscape:connector-curvature="0"
           id="path1179"
           style="fill:#e12426;fill-opacity:1;fill-rule:nonzero;stroke:none;stroke-width:1.57847"
           d="M 0,0 C 6.955,0 12.681,5.219 13.508,11.952 9.189,13.067 4.666,13.663 0,13.663 c -4.668,0 -9.192,-0.596 -13.512,-1.711 C -12.684,5.219 -6.957,0 0,0" />
      </g>
      <g
         transform="matrix(-0.26816846,0,0,0.26816846,46.132403,131.45085)"
         id="g1185"
         style="stroke-width:1.57847">
        <path
           inkscape:connector-curvature="0"
           id="path1187"
           style="fill:#e12426;fill-opacity:1;fill-rule:nonzero;stroke:none;stroke-width:1.57847"
           d="m 0,0 c -4.913,-4.917 -5.276,-12.648 -1.108,-17.992 7.872,4.641 14.46,11.23 19.097,19.105 C 12.646,5.274 4.914,4.911 0,0" />
      </g>
      <g
         transform="matrix(-0.26816846,0,0,0.26816846,25.936083,111.25431)"
         id="g1193"
         style="stroke-width:1.57847">
        <path
           inkscape:connector-curvature="0"
           id="path1195"
           style="fill:#e12426;fill-opacity:1;fill-rule:nonzero;stroke:none;stroke-width:1.57847"
           d="M 0,0 C 4.914,4.914 5.276,12.646 1.109,17.989 -6.765,13.347 -13.351,6.763 -17.991,-1.111 -12.647,-5.279 -4.913,-4.915 0,0" />
      </g>
      <g
         transform="matrix(-0.26816846,0,0,0.26816846,46.124628,111.24146)"
         id="g1201"
         style="stroke-width:1.57847">
        <path
           inkscape:connector-curvature="0"
           id="path1203"
           style="fill:#e12426;fill-opacity:1;fill-rule:nonzero;stroke:none;stroke-width:1.57847"
           d="M 0,0 C 4.916,-4.911 12.646,-5.276 17.989,-1.109 13.353,6.765 6.764,13.351 -1.108,17.991 -5.276,12.648 -4.913,4.916 0,0" />
      </g>
      <g
         transform="matrix(-0.26816846,0,0,0.26816846,25.930549,131.43629)"
         id="g1209"
         style="stroke-width:1.57847">
        <path
           inkscape:connector-curvature="0"
           id="path1211"
           style="fill:#e12426;fill-opacity:1;fill-rule:nonzero;stroke:none;stroke-width:1.57847"
           d="M 0,0 C -4.913,4.912 -12.646,5.276 -17.989,1.114 -13.349,-6.761 -6.762,-13.351 1.112,-17.991 5.279,-12.647 4.916,-4.917 0,0" />
      </g>
    </g>
    <g
       id="g1697"
       transform="matrix(1.0431595,0,0,1.0431595,-1.5558063,-5.2382704)"
       style="stroke-width:0.958626">
      <g
         transform="matrix(0.35491192,0,0,-0.35491192,21.894417,119.79603)"
         id="g1157"
         style="stroke-width:0.952863">
        <path
           inkscape:connector-curvature="0"
           id="path1159"
           style="fill:#e12426;fill-opacity:1;fill-rule:nonzero;stroke:none;stroke-width:0.952863"
           d="m 0,0 c -2.357,0 -4.269,-1.915 -4.269,-4.272 0,-2.357 1.912,-4.27 4.269,-4.27 2.36,0 4.272,1.913 4.272,4.27 C 4.272,-1.915 2.36,0 0,0" />
      </g>
      <g
         transform="matrix(0.35491192,0,0,-0.35491192,50.200563,119.79603)"
         id="g1165"
         style="stroke-width:0.952863">
        <path
           inkscape:connector-curvature="0"
           id="path1167"
           style="fill:#e12426;fill-opacity:1;fill-rule:nonzero;stroke:none;stroke-width:0.952863"
           d="m 0,0 c -2.36,0 -4.271,-1.915 -4.271,-4.272 0,-2.357 1.911,-4.27 4.271,-4.27 2.356,0 4.271,1.913 4.271,4.27 C 4.271,-1.915 2.356,0 0,0" />
      </g>
      <g
         transform="matrix(0.35491192,0,0,-0.35491192,36.000005,134.01507)"
         id="g1173"
         style="stroke-width:0.952862">
        <path
           inkscape:connector-curvature="0"
           id="path1175"
           style="fill:#e12426;fill-opacity:1;fill-rule:nonzero;stroke:none;stroke-width:0.952862"
           d="m 0,0 c -2.36,0 -4.271,-1.915 -4.271,-4.274 0,-2.358 1.911,-4.272 4.271,-4.272 2.356,0 4.269,1.914 4.269,4.272 C 4.269,-1.915 2.356,0 0,0" />
      </g>
      <g
         transform="matrix(0.35491192,0,0,-0.35491192,36.000005,105.69204)"
         id="g1181"
         style="stroke-width:0.952862">
        <path
           inkscape:connector-curvature="0"
           id="path1183"
           style="fill:#e12426;fill-opacity:1;fill-rule:nonzero;stroke:none;stroke-width:0.952862"
           d="m 0,0 c -2.36,0 -4.271,-1.911 -4.271,-4.271 0,-2.356 1.911,-4.27 4.271,-4.27 2.356,0 4.269,1.914 4.269,4.27 C 4.269,-1.911 2.356,0 0,0" />
      </g>
      <g
         transform="matrix(0.35491192,0,0,-0.35491192,44.956445,130.26984)"
         id="g1189"
         style="stroke-width:0.952862">
        <path
           inkscape:connector-curvature="0"
           id="path1191"
           style="fill:#e12426;fill-opacity:1;fill-rule:nonzero;stroke:none;stroke-width:0.952862"
           d="m 0,0 c -1.666,-1.669 -1.666,-4.373 0,-6.04 1.671,-1.67 4.374,-1.67 6.043,0 1.664,1.667 1.664,4.371 0,6.04 C 4.374,1.667 1.671,1.667 0,0" />
      </g>
      <g
         transform="matrix(0.35491192,0,0,-0.35491192,24.938933,110.25218)"
         id="g1197"
         style="stroke-width:0.952862">
        <path
           inkscape:connector-curvature="0"
           id="path1199"
           style="fill:#e12426;fill-opacity:1;fill-rule:nonzero;stroke:none;stroke-width:0.952862"
           d="m 0,0 c -1.665,-1.667 -1.665,-4.374 0,-6.04 1.668,-1.668 4.374,-1.668 6.04,0 1.668,1.666 1.668,4.373 0,6.04 C 4.374,1.666 1.668,1.666 0,0" />
      </g>
      <g
         transform="matrix(0.35491192,0,0,-0.35491192,47.085675,112.37055)"
         id="g1205"
         style="stroke-width:0.952862">
        <path
           inkscape:connector-curvature="0"
           id="path1207"
           style="fill:#e12426;fill-opacity:1;fill-rule:nonzero;stroke:none;stroke-width:0.952862"
           d="m 0,0 c 1.663,1.668 1.663,4.373 0,6.041 -1.67,1.667 -4.377,1.667 -6.042,0 C -7.708,4.373 -7.708,1.668 -6.042,0 -4.377,-1.666 -1.67,-1.666 0,0" />
      </g>
      <g
         transform="matrix(0.35491192,0,0,-0.35491192,24.926353,130.24086)"
         id="g1213"
         style="stroke-width:0.952862">
        <path
           inkscape:connector-curvature="0"
           id="path1215"
           style="fill:#e12426;fill-opacity:1;fill-rule:nonzero;stroke:none;stroke-width:0.952862"
           d="m 0,0 c -1.664,-1.668 -1.664,-4.373 0,-6.041 1.669,-1.667 4.375,-1.667 6.041,0 1.668,1.668 1.668,4.373 0,6.041 C 4.375,1.667 1.669,1.667 0,0" />
      </g>
    </g>
  </g>
</svg>
